<svg width="200" height="80" viewBox="0 0 200 80" fill="none" xmlns="http://www.w3.org/2000/svg">
<g clip-path="url(#clip0_26_56)">
<path d="M16.1132 24.2042C12.9491 24.8104 10.6249 25.9837 8.57413 28.0369C6.69913 29.8946 5.44913 32.2607 4.88272 35.0962C4.39444 37.4232 4.35538 41.8425 4.80459 43.9936C6.19131 50.7008 10.7616 54.6509 17.7343 55.1789C21.5038 55.4526 24.8827 54.866 28.5155 53.2821L30.1757 52.539L30.2343 50.1337C30.2538 48.7845 30.2148 47.6307 30.1171 47.533C29.9999 47.4156 29.3944 47.7481 28.6327 48.3347C27.0116 49.5667 24.9218 50.5835 23.1444 51.0137C21.4452 51.4244 18.0468 51.483 16.6015 51.1115C12.9101 50.1924 10.1171 47.1614 9.27725 43.1723C8.90616 41.4123 8.90616 37.6969 9.27725 35.937C9.66788 34.1184 10.7226 31.987 11.914 30.6963C15.664 26.5899 23.2812 26.7267 28.8671 31.0092C29.5507 31.5176 29.9608 31.7327 30.0976 31.5959C30.2148 31.4785 30.2538 30.403 30.2343 28.9755L30.1757 26.5507L29.2968 26.1205C27.9296 25.4361 24.9804 24.5366 23.1249 24.2042C21.0937 23.8522 17.9882 23.8522 16.1132 24.2042Z" fill="black"/>
<path d="M137.988 24.1458C137.93 24.2827 137.91 31.2246 137.93 39.5549L137.988 54.7098L140 54.7685L141.992 54.8271V39.3594V23.9111H140.039C138.652 23.9111 138.047 23.9893 137.988 24.1458Z" fill="black"/>
<path d="M166.445 39.5941L166.504 55.2965L170.898 55.3552C176.035 55.4334 180.43 55.1401 182.578 54.6121C189.805 52.7739 194.336 46.3209 193.887 38.499C193.633 34.2947 192.363 31.3029 189.648 28.6043C187.812 26.7662 186.465 25.8862 184.414 25.1627C181.445 24.1458 180.82 24.0676 173.379 23.9698L166.406 23.8721L166.445 39.5941ZM180.176 29.2692C183.301 29.9731 185.996 31.9286 187.129 34.3534C187.93 36.0546 188.34 38.4403 188.184 40.4349C187.949 43.6614 187.148 45.5974 185.352 47.24C182.93 49.4692 180.84 50.1145 175.547 50.2514L171.875 50.3492V39.5549V28.7412L175.352 28.8585C177.285 28.9172 179.414 29.1127 180.176 29.2692Z" fill="#D2111F"/>
<path d="M158.867 24.38C157.168 25.1231 156.602 27.5479 157.734 29.1709C158.125 29.7185 159.453 30.3638 160.254 30.3638C161.133 30.3638 162.383 29.6989 162.91 28.9754C163.535 28.0954 163.555 26.3355 162.969 25.5338C161.973 24.204 160.352 23.7347 158.867 24.38Z" fill="#D2111F"/>
<path d="M82.4219 28.7017V31.9282H81.0547H79.6875V33.6882V35.4481H81.0352H82.4023L82.4609 42.7224C82.5195 48.9408 82.5781 50.1728 82.8711 51.0137C83.8281 53.9077 86.5234 55.3744 90.4297 55.1397C91.4453 55.081 92.793 54.9246 93.418 54.7877L94.5312 54.5531V52.6367C94.5312 51.5612 94.4922 50.7008 94.4727 50.7008C94.4336 50.7008 93.7109 50.8768 92.8711 51.0919C90.4297 51.7176 88.6914 51.5416 87.6367 50.5443C86.6406 49.5862 86.5234 48.7257 86.5234 41.7643V35.4481H90.5273H94.5312V33.6882V31.9282H90.5273H86.5234V28.7017V25.4752H84.4727H82.4219V28.7017Z" fill="black"/>
<path d="M40.1562 31.6547C36.6797 32.4956 33.9062 35.4092 32.8711 39.3593C32.4219 41.0996 32.4219 45.3821 32.8711 47.2594C33.6523 50.4077 35.7227 53.0867 38.3203 54.3186C41.8359 55.9808 46.4648 55.6483 49.5508 53.5169C50.8984 52.5978 51.7383 51.6005 52.5977 49.9579C53.6523 47.9242 53.9844 46.3403 53.9648 43.2702C53.9453 38.9486 53.125 36.6216 50.7812 34.2555C49.3945 32.8475 47.7539 31.9285 45.9375 31.5569C44.5312 31.2636 41.5625 31.3223 40.1562 31.6547ZM46.1914 35.6048C48.457 36.8367 49.5117 38.8508 49.7461 42.3902C50.0195 46.6532 48.6328 49.9579 46.0547 51.1117C44.5117 51.7961 41.9336 51.7765 40.4102 51.0725C38.9453 50.3881 37.8516 48.9997 37.2656 47.1225C36.6797 45.2648 36.6406 41.4516 37.168 39.6526C37.8516 37.4429 39.082 36.0154 40.957 35.331C42.1094 34.9008 45.1953 35.0572 46.1914 35.6048Z" fill="black"/>
<path d="M65.8789 31.6353C64.707 31.9481 63.1836 32.6912 61.9727 33.5125C61.5234 33.8254 61.1133 34.0796 61.0547 34.0796C60.9961 34.0796 60.9375 33.5907 60.9375 33.0041V31.9286H58.8867H56.8359V43.3681V54.8076H58.8867H60.9375V46.4186V38.0101L61.4648 37.5995C62.4023 36.8564 65.1172 35.644 66.2891 35.4289C68.3594 35.0573 70.4492 35.6244 71.25 36.7586C72.1094 38.0297 72.1484 38.3034 72.2266 46.7315L72.2852 54.8076H74.3359H76.3672V46.6142C76.3672 41.9993 76.2891 37.9906 76.1719 37.4039C75.6445 34.588 73.9062 32.4761 71.543 31.733C70.0195 31.2637 67.4219 31.2246 65.8789 31.6353Z" fill="black"/>
<path d="M121.289 31.6548C119.512 32.1241 118.125 32.9063 116.875 34.1774C114.648 36.387 113.652 39.1638 113.652 43.2703C113.633 45.9298 113.926 47.6115 114.707 49.3518C115.312 50.7011 116.562 52.3633 117.637 53.2237C119.941 55.0814 123.633 55.8244 126.992 55.1205C131.055 54.2405 134.062 51.014 134.883 46.5946C135.351 44.1503 135.176 40.5718 134.492 38.4794C133.379 35.0182 130.801 32.5152 127.441 31.6352C125.976 31.2637 122.734 31.2637 121.289 31.6548ZM127.539 35.7613C129.707 36.9932 130.664 38.9683 130.82 42.5468C130.976 46.36 130.293 48.5696 128.496 50.1927C125.84 52.5784 121.25 52.0699 119.336 49.1758C117.676 46.6728 117.344 42.1361 118.574 38.8509C119.101 37.443 120.625 35.8395 121.875 35.3898C122.5 35.1551 123.281 35.0769 124.609 35.116C126.289 35.1551 126.582 35.2333 127.539 35.7613Z" fill="black"/>
<path d="M97.6562 43.3681V54.8076H99.707H101.758V46.7902V38.7923L102.598 38.2252C104.922 36.6217 107.148 35.9178 109.316 36.1133C110.098 36.172 111.094 36.2893 111.523 36.348L112.305 36.4848V34.3338V32.1632L111.699 32.0459C111.367 31.9873 110.41 31.9286 109.59 31.9286C107.187 31.9286 105.41 32.5348 103.086 34.1383L101.758 35.0573V33.493V31.9286H99.707H97.6562V43.3681Z" fill="black"/>
<path d="M157.617 44.0523V55.394H160.254H162.891V44.0523V32.7106H160.254H157.617V44.0523Z" fill="#D2111F"/>
</g>
<defs>
<clipPath id="clip0_26_56">
<rect width="189.426" height="31.5222" fill="white" transform="matrix(1 0 0 -1 4.49072 55.394)"/>
</clipPath>
</defs>
</svg>
