<svg width="200" height="80" viewBox="0 0 200 80" fill="none" xmlns="http://www.w3.org/2000/svg">
<path d="M111.188 38.7602C107.749 34.2906 110.529 27.3294 116.811 27.2471H129.582L128.429 30.3576H118.109C116.4 30.3775 115.431 32.4784 116.4 33.7559C117.986 36.2069 120.705 37.916 122.393 40.4285C126.08 45.3921 122.353 51.8593 116.853 51.8593H102.825L103.979 48.7496H115.04C116.75 48.7288 117.697 46.628 116.811 45.3722C115.411 43.0858 112.919 40.8818 111.188 38.7602ZM98.2324 51.9009H91.2701L100.354 27.2679H107.316L98.2324 51.9009ZM132.528 51.9009H125.545L134.629 27.2679H141.591L132.528 51.9009ZM143.074 34.724C145.505 29.5949 150.613 26.8761 155.35 27.0209H159.676C163.322 27.1855 165.526 30.1921 165.732 32.6847C165.773 33.2818 165.752 33.8582 165.691 34.2915C165.628 34.5793 165.567 34.8471 165.505 35.1357C164.743 38.3078 163.589 41.5206 162.086 44.4249C159.655 49.5531 154.547 52.2719 149.81 52.1271H145.485C141.838 51.9624 139.634 48.9559 139.448 46.4633C139.408 45.8662 139.408 45.3097 139.49 44.8574C139.551 44.5895 139.614 44.3009 139.675 44.0123C140.396 40.8411 141.55 37.6274 143.074 34.724ZM156.257 29.575C153.682 29.6564 151.519 31.1194 150.592 33.5288L145.978 46.0724C145.85 46.3712 145.794 46.6955 145.813 47.0197C145.813 48.3588 146.864 49.4707 148.162 49.5739H148.841C151.416 49.4915 153.579 48.0285 154.507 45.6192L159.1 33.0755C159.223 32.7878 159.284 32.4585 159.264 32.1283C159.264 30.7892 158.214 29.6773 156.895 29.575H156.257ZM82.0825 44.1978L93.4132 27.2679H97.512L81.6716 50.8713C81.4635 51.1812 81.1853 51.4377 80.8595 51.6201C80.5337 51.8024 80.1695 51.9054 79.7964 51.9208H79.5702H79.591H75.7185L73.7817 27.2896H80.744L82.0834 44.1996L82.0825 44.1978ZM173.065 35.218L173.044 34.9086L166.762 51.8801H163.178L172.303 27.2471H176.855L183.425 43.8893L189.584 27.2471H193.189L184.064 51.881H180.768C179.862 51.8403 179.08 51.2631 178.729 50.4605L173.064 35.2189L173.065 35.218Z" fill="#6D6E71"/>
<path d="M35.8819 51.9009H28.4663L37.5707 27.2679H44.9655L35.8819 51.9009ZM13.0594 36.7416H21.8751L25.3775 27.2471H32.7714L24.2453 50.3764C24.2453 50.3764 24.2453 50.3972 24.2245 50.3972C24.0506 50.8303 23.7524 51.2023 23.3676 51.4663C22.9827 51.7303 22.5282 51.8746 22.0615 51.881H16.2722L20.6189 40.0992H11.8231L7.47728 51.8801H0.081543L9.16603 27.2471H16.5618L13.0594 36.7416ZM53.9052 36.5155L65.9753 27.2471H71.4958L59.1578 36.7217L66.9853 51.8801H60.7027C60.7235 51.8801 60.7434 51.8801 60.7642 51.8593C59.7959 51.9217 58.9108 51.3653 58.499 50.542C58.499 50.542 58.499 50.5212 58.4782 50.5212V50.542L53.5757 41.0257L51.7214 42.4471L48.2407 51.9009H40.8468L49.9295 27.2679H57.3243L53.9052 36.5155Z" fill="#D71820"/>
<path d="M195.888 31.3456V28.2151H197.268C197.557 28.2151 197.762 28.2359 197.906 28.2974C198.048 28.3581 198.169 28.4583 198.256 28.586C198.338 28.7308 198.38 28.8946 198.38 29.0592C198.38 29.2854 198.319 29.4718 198.174 29.6157C198.03 29.7604 197.803 29.8627 197.515 29.9043C197.618 29.9658 197.7 30.0074 197.762 30.0689C197.886 30.1721 197.988 30.3159 198.112 30.4806L198.648 31.3248H198.132L197.721 30.6661C197.624 30.5177 197.521 30.3735 197.412 30.2336C197.354 30.1548 197.285 30.0852 197.206 30.0273C197.149 29.9917 197.086 29.9643 197.021 29.9459C196.979 29.9459 196.897 29.9251 196.795 29.9251H196.299V31.3248H195.888V31.3456ZM196.299 29.5948H197.185C197.371 29.5948 197.515 29.5749 197.638 29.5333C197.736 29.4959 197.822 29.4317 197.886 29.3478C197.944 29.263 197.972 29.1617 197.967 29.0592C197.967 28.9895 197.952 28.9207 197.924 28.857C197.895 28.7932 197.855 28.7358 197.804 28.6883C197.7 28.586 197.536 28.5444 197.288 28.5444H196.299V29.5948Z" fill="#6D6E71"/>
<path d="M197.185 27.1646C196.481 27.1662 195.806 27.4468 195.308 27.9448C194.81 28.4428 194.53 29.1177 194.528 29.8218C194.53 30.5258 194.81 31.2005 195.308 31.6983C195.806 32.1961 196.481 32.4765 197.185 32.4782C197.89 32.4765 198.564 32.1961 199.062 31.6983C199.56 31.2005 199.841 30.5258 199.843 29.8218C199.841 29.1177 199.561 28.4428 199.063 27.9448C198.565 27.4468 197.89 27.1662 197.185 27.1646ZM197.185 32.1697C196.877 32.1698 196.572 32.1092 196.287 31.9912C196.002 31.8733 195.743 31.7003 195.525 31.4823C195.306 31.2642 195.133 31.0054 195.015 30.7205C194.897 30.4356 194.837 30.1302 194.837 29.8218C194.837 29.1991 195.084 28.602 195.525 28.1617C195.965 27.7213 196.563 27.474 197.185 27.474C197.808 27.474 198.406 27.7213 198.846 28.1617C199.286 28.602 199.534 29.1991 199.534 29.8218C199.534 30.1302 199.473 30.4356 199.355 30.7205C199.237 31.0054 199.064 31.2642 198.846 31.4823C198.628 31.7003 198.369 31.8733 198.084 31.9912C197.799 32.1092 197.494 32.1698 197.185 32.1697Z" fill="#6D6E71"/>
</svg>
