<svg width="200" height="80" viewBox="0 0 200 80" fill="none" xmlns="http://www.w3.org/2000/svg">
<path d="M160.112 30.0669C152.122 30.0669 145.645 36.5419 145.645 44.528C145.645 52.5132 152.122 58.9882 160.112 58.9882C162.749 58.9882 165.22 58.2805 167.349 57.0491V58.9891H174.581V44.5277C174.581 36.5409 168.103 30.0669 160.112 30.0669ZM167.345 44.5277V44.5994C167.307 48.5593 164.084 51.7579 160.112 51.7579C156.116 51.7579 152.877 48.5212 152.877 44.5277C152.877 40.5348 156.116 37.2962 160.112 37.2962C164.108 37.2962 167.345 40.5348 167.345 44.5277Z" fill="#00B26B"/>
<path d="M55.9988 51.211C55.2667 51.5602 54.4485 51.7594 53.5825 51.7594C50.4759 51.7594 47.9564 49.2415 47.9564 46.1358L47.958 37.2986L53.4339 37.2973C53.4339 37.2961 54.3406 34.1104 54.3406 30.0681L47.958 30.0693V21.6096C43.9124 21.6096 40.7227 22.6779 40.7227 22.6779C40.7227 22.6779 40.7246 27.0229 40.7236 30.0671L40.7227 46.1202C40.7227 46.1256 40.7227 46.1307 40.7227 46.1358C40.7227 53.2334 46.4804 58.9887 53.5822 58.9887C56.0131 58.9887 58.285 58.3124 60.2247 57.1401C58.418 55.5049 56.9664 53.4853 55.9988 51.211Z" fill="#00B26B"/>
<path d="M148.755 31.9155C146.816 30.7438 144.543 30.0669 142.111 30.0669C135.01 30.0669 129.252 35.8225 129.252 42.9195C129.252 42.9252 129.253 42.93 129.253 42.935V58.9885H136.486L136.487 42.9195C136.487 39.8144 139.005 37.2962 142.111 37.2962C142.978 37.2962 143.797 37.4951 144.529 37.8446C145.497 35.5697 146.949 33.5507 148.755 31.9155Z" fill="#00B26B"/>
<path d="M6.21072 21C4.02638 21 2.25586 22.77 2.25586 24.9523C2.25586 27.1365 4.02638 28.9065 6.21072 28.9065C8.3957 28.9065 10.1662 27.1365 10.1662 24.9523C10.1662 22.77 8.3957 21 6.21072 21Z" fill="#00B26B"/>
<path d="M25.4168 30.0679C18.315 30.0679 12.5566 35.8225 12.5566 42.9202C12.5566 42.9202 12.5573 42.93 12.5573 42.9351V58.9891H19.791V42.9202C19.791 39.8145 22.3102 37.2965 25.4171 37.2965C28.5253 37.2965 31.0435 39.8145 31.0435 42.9202V58.9891H38.2775V42.9202C38.2775 35.8225 32.5198 30.0679 25.4168 30.0679Z" fill="#00B26B"/>
<path d="M2.59375 58.9891H9.82783V30.0681C5.78157 30.0681 2.59375 31.1364 2.59375 31.1364V58.9891Z" fill="#00B26B"/>
<path d="M87.8276 58.9884H95.062V21.6096C91.1037 21.6109 87.9628 22.6329 87.8343 22.6757L87.8276 58.9884Z" fill="#00B26B"/>
<path d="M112.453 30.0668C109.818 30.0668 107.349 30.7748 105.221 32.0061L105.219 21.6096C101.255 21.6109 98.1096 22.6361 97.9909 22.6757C97.9909 22.6757 97.9849 44.5108 97.9849 44.5279C97.9849 52.5131 104.464 58.9881 112.453 58.9881C120.445 58.9881 126.922 52.5131 126.922 44.5279C126.922 36.5418 120.445 30.0668 112.453 30.0668ZM112.453 51.7578C108.458 51.7578 105.219 48.5202 105.219 44.5276L105.221 44.4737C105.25 40.5045 108.477 37.2967 112.453 37.2967C116.45 37.2967 119.689 40.534 119.689 44.5276C119.689 48.5202 116.45 51.7578 112.453 51.7578Z" fill="#00B26B"/>
<path d="M85.631 47.9525C81.8999 46.4715 78.6371 46.3643 78.6371 46.3643C77.7314 49.8465 74.3522 52.1887 70.6925 51.7066C69.8706 51.599 69.0994 51.3551 68.3977 51.0037L84.7602 38.4543C82.7434 34.1179 78.6197 30.8732 73.5255 30.2027C65.6056 29.1607 58.3411 34.7329 57.2983 42.6483C56.2554 50.564 61.8307 57.8253 69.7493 58.8673C77.0672 59.8307 83.8233 54.9154 85.631 47.9525ZM64.4616 43.5917C64.9836 39.6298 68.6195 36.8417 72.5817 37.3628C73.4037 37.471 74.1748 37.7152 74.8765 38.0664L64.5473 45.9884C64.3895 45.2202 64.3534 44.4138 64.4616 43.5917Z" fill="#00B26B"/>
<path d="M190.876 41.4038L186.117 41.399C184.983 41.399 184.064 40.4807 184.064 39.3471C184.064 38.2147 184.983 37.2961 186.117 37.2961H196.509C196.551 37.167 197.575 34.0524 197.576 30.0969C197.576 30.0969 186.32 30.0959 185.627 30.0959C180.768 30.0959 176.83 34.0324 176.83 38.8887C176.83 43.745 180.768 47.6853 185.627 47.6853H190.386C191.519 47.6853 192.439 48.6039 192.439 49.7369C192.439 50.87 191.52 51.7883 190.386 51.7883H178.597C178.554 51.917 177.531 55.0319 177.531 58.9877C177.531 58.9877 190.701 58.9884 190.876 58.9884C195.734 58.9884 199.673 55.0525 199.673 50.1956C199.673 45.3402 195.734 41.4038 190.876 41.4038Z" fill="#00B26B"/>
</svg>
